<mxfile host="app.diagrams.net" modified="2022-11-27T09:23:17.960Z" agent="5.0 (Windows NT 10.0; Win64; x64) AppleWebKit/537.36 (KHTML, like Gecko) Chrome/107.0.0.0 Safari/537.36" version="20.6.0" etag="0F65GnFCmjMC8YKBXtPW" type="github">
  <diagram id="exN9He7QCqvmtrnpTgVh" name="第 1 页">
    <mxGraphModel dx="1038" dy="579" grid="1" gridSize="10" guides="1" tooltips="1" connect="1" arrows="1" fold="1" page="1" pageScale="1" pageWidth="827" pageHeight="1169" background="#F1FAEE" math="0" shadow="0">
      <root>
        <mxCell id="0" />
        <mxCell id="1" parent="0" />
        <mxCell id="jyDaiIP-EExztPaQqgR1-11" style="rounded=0;orthogonalLoop=1;jettySize=auto;html=1;entryX=1;entryY=0.5;entryDx=0;entryDy=0;strokeColor=#457B9D;fontSize=12;fontColor=#1D3557;fillColor=#A8DADC;exitX=0;exitY=0.5;exitDx=0;exitDy=0;labelBackgroundColor=#F1FAEE;" edge="1" parent="1" source="jyDaiIP-EExztPaQqgR1-3" target="jyDaiIP-EExztPaQqgR1-8">
          <mxGeometry relative="1" as="geometry">
            <mxPoint x="300" y="150" as="sourcePoint" />
          </mxGeometry>
        </mxCell>
        <mxCell id="jyDaiIP-EExztPaQqgR1-3" value="&lt;font style=&quot;font-size: 16px;&quot;&gt;monorepo&lt;/font&gt;" style="rounded=1;whiteSpace=wrap;html=1;fontSize=18;fillColor=#A8DADC;strokeColor=#457B9D;fontColor=#1D3557;" vertex="1" parent="1">
          <mxGeometry x="300" y="130" width="106" height="40" as="geometry" />
        </mxCell>
        <mxCell id="jyDaiIP-EExztPaQqgR1-4" value="&lt;div style=&quot;font-size: 12px;&quot; data-docx-has-block-data=&quot;false&quot; data-page-id=&quot;DxfHdrzcuoXOEqxZpcIcURhInae&quot;&gt;&lt;div class=&quot;ace-line ace-line old-record-id-JIQad8sEWowKi4xaQBFcA7dcnKf&quot; style=&quot;&quot;&gt;&lt;font style=&quot;font-size: 12px;&quot;&gt;@magic-platform/magic-box&lt;/font&gt;&lt;/div&gt;&lt;/div&gt;&lt;font style=&quot;font-size: 12px;&quot;&gt;&lt;span class=&quot;lark-record-clipboard&quot; data-lark-record-format=&quot;docx/text&quot; data-lark-record-data=&quot;{&amp;quot;rootId&amp;quot;:&amp;quot;DxfHdrzcuoXOEqxZpcIcURhInae&amp;quot;,&amp;quot;text&amp;quot;:{&amp;quot;initialAttributedTexts&amp;quot;:{&amp;quot;text&amp;quot;:{&amp;quot;0&amp;quot;:&amp;quot;@magic-platform/magic-box&amp;quot;},&amp;quot;attribs&amp;quot;:{&amp;quot;0&amp;quot;:&amp;quot;*0+p&amp;quot;}},&amp;quot;apool&amp;quot;:{&amp;quot;numToAttrib&amp;quot;:{&amp;quot;0&amp;quot;:[&amp;quot;author&amp;quot;,&amp;quot;7068583431243890692&amp;quot;]},&amp;quot;nextNum&amp;quot;:1}},&amp;quot;type&amp;quot;:&amp;quot;text&amp;quot;,&amp;quot;referenceRecordMap&amp;quot;:{},&amp;quot;extra&amp;quot;:{&amp;quot;mention_page_title&amp;quot;:{},&amp;quot;external_mention_url&amp;quot;:{}},&amp;quot;isKeepQuoteContainer&amp;quot;:false,&amp;quot;isFromCode&amp;quot;:false,&amp;quot;selection&amp;quot;:[{&amp;quot;id&amp;quot;:23,&amp;quot;type&amp;quot;:&amp;quot;text&amp;quot;,&amp;quot;selection&amp;quot;:{&amp;quot;start&amp;quot;:0,&amp;quot;end&amp;quot;:25},&amp;quot;recordId&amp;quot;:&amp;quot;JIQad8sEWowKi4xaQBFcA7dcnKf&amp;quot;}],&amp;quot;isCut&amp;quot;:false}&quot;&gt;&lt;/span&gt;&lt;/font&gt;" style="rounded=1;whiteSpace=wrap;html=1;strokeWidth=2;fillWeight=4;hachureGap=8;hachureAngle=45;fillColor=#f8cecc;sketch=1;fontSize=18;strokeColor=#b85450;" vertex="1" parent="1">
          <mxGeometry x="310" y="340" width="170" height="40" as="geometry" />
        </mxCell>
        <mxCell id="jyDaiIP-EExztPaQqgR1-20" style="edgeStyle=orthogonalEdgeStyle;rounded=0;orthogonalLoop=1;jettySize=auto;html=1;exitX=0.5;exitY=1;exitDx=0;exitDy=0;entryX=0;entryY=0.5;entryDx=0;entryDy=0;dashed=1;strokeColor=#9933FF;fontColor=#1D3557;fillColor=#A8DADC;curved=1;" edge="1" parent="1" source="jyDaiIP-EExztPaQqgR1-7" target="jyDaiIP-EExztPaQqgR1-4">
          <mxGeometry relative="1" as="geometry">
            <Array as="points">
              <mxPoint x="220" y="260" />
              <mxPoint x="220" y="360" />
            </Array>
          </mxGeometry>
        </mxCell>
        <mxCell id="jyDaiIP-EExztPaQqgR1-7" value="&lt;div style=&quot;font-size: 12px;&quot; data-docx-has-block-data=&quot;false&quot; data-page-id=&quot;DxfHdrzcuoXOEqxZpcIcURhInae&quot;&gt;&lt;div class=&quot;ace-line ace-line old-record-id-JIQad8sEWowKi4xaQBFcA7dcnKf&quot; style=&quot;&quot;&gt;&lt;font style=&quot;font-size: 12px;&quot;&gt;@magic-platform/magic-box&lt;/font&gt;&lt;/div&gt;&lt;/div&gt;&lt;font style=&quot;font-size: 12px;&quot;&gt;&lt;span class=&quot;lark-record-clipboard&quot; data-lark-record-format=&quot;docx/text&quot; data-lark-record-data=&quot;{&amp;quot;rootId&amp;quot;:&amp;quot;DxfHdrzcuoXOEqxZpcIcURhInae&amp;quot;,&amp;quot;text&amp;quot;:{&amp;quot;initialAttributedTexts&amp;quot;:{&amp;quot;text&amp;quot;:{&amp;quot;0&amp;quot;:&amp;quot;@magic-platform/magic-box&amp;quot;},&amp;quot;attribs&amp;quot;:{&amp;quot;0&amp;quot;:&amp;quot;*0+p&amp;quot;}},&amp;quot;apool&amp;quot;:{&amp;quot;numToAttrib&amp;quot;:{&amp;quot;0&amp;quot;:[&amp;quot;author&amp;quot;,&amp;quot;7068583431243890692&amp;quot;]},&amp;quot;nextNum&amp;quot;:1}},&amp;quot;type&amp;quot;:&amp;quot;text&amp;quot;,&amp;quot;referenceRecordMap&amp;quot;:{},&amp;quot;extra&amp;quot;:{&amp;quot;mention_page_title&amp;quot;:{},&amp;quot;external_mention_url&amp;quot;:{}},&amp;quot;isKeepQuoteContainer&amp;quot;:false,&amp;quot;isFromCode&amp;quot;:false,&amp;quot;selection&amp;quot;:[{&amp;quot;id&amp;quot;:23,&amp;quot;type&amp;quot;:&amp;quot;text&amp;quot;,&amp;quot;selection&amp;quot;:{&amp;quot;start&amp;quot;:0,&amp;quot;end&amp;quot;:25},&amp;quot;recordId&amp;quot;:&amp;quot;JIQad8sEWowKi4xaQBFcA7dcnKf&amp;quot;}],&amp;quot;isCut&amp;quot;:false}&quot;&gt;&lt;/span&gt;&lt;/font&gt;" style="rounded=1;whiteSpace=wrap;html=1;strokeWidth=2;fillWeight=4;hachureGap=8;hachureAngle=45;fillColor=none;sketch=1;fontSize=18;strokeColor=#d79b00;" vertex="1" parent="1">
          <mxGeometry x="150" y="220" width="170" height="40" as="geometry" />
        </mxCell>
        <mxCell id="jyDaiIP-EExztPaQqgR1-18" style="edgeStyle=orthogonalEdgeStyle;rounded=1;orthogonalLoop=1;jettySize=auto;html=1;entryX=0;entryY=0.5;entryDx=0;entryDy=0;strokeColor=#9933FF;fontSize=12;fontColor=#1D3557;fillColor=#A8DADC;exitX=0.5;exitY=1;exitDx=0;exitDy=0;curved=1;labelBackgroundColor=#F1FAEE;dashed=1;" edge="1" parent="1" source="jyDaiIP-EExztPaQqgR1-8" target="jyDaiIP-EExztPaQqgR1-4">
          <mxGeometry relative="1" as="geometry">
            <Array as="points">
              <mxPoint x="80" y="160" />
              <mxPoint x="80" y="360" />
            </Array>
          </mxGeometry>
        </mxCell>
        <mxCell id="jyDaiIP-EExztPaQqgR1-8" value="&lt;div style=&quot;font-size: 12px;&quot; data-docx-has-block-data=&quot;false&quot; data-page-id=&quot;DxfHdrzcuoXOEqxZpcIcURhInae&quot;&gt;&lt;div class=&quot;ace-line ace-line old-record-id-JIQad8sEWowKi4xaQBFcA7dcnKf&quot; style=&quot;&quot;&gt;&lt;font style=&quot;font-size: 12px;&quot;&gt;@magic-platform/magic-box&lt;/font&gt;&lt;/div&gt;&lt;/div&gt;&lt;font style=&quot;font-size: 12px;&quot;&gt;&lt;span class=&quot;lark-record-clipboard&quot; data-lark-record-format=&quot;docx/text&quot; data-lark-record-data=&quot;{&amp;quot;rootId&amp;quot;:&amp;quot;DxfHdrzcuoXOEqxZpcIcURhInae&amp;quot;,&amp;quot;text&amp;quot;:{&amp;quot;initialAttributedTexts&amp;quot;:{&amp;quot;text&amp;quot;:{&amp;quot;0&amp;quot;:&amp;quot;@magic-platform/magic-box&amp;quot;},&amp;quot;attribs&amp;quot;:{&amp;quot;0&amp;quot;:&amp;quot;*0+p&amp;quot;}},&amp;quot;apool&amp;quot;:{&amp;quot;numToAttrib&amp;quot;:{&amp;quot;0&amp;quot;:[&amp;quot;author&amp;quot;,&amp;quot;7068583431243890692&amp;quot;]},&amp;quot;nextNum&amp;quot;:1}},&amp;quot;type&amp;quot;:&amp;quot;text&amp;quot;,&amp;quot;referenceRecordMap&amp;quot;:{},&amp;quot;extra&amp;quot;:{&amp;quot;mention_page_title&amp;quot;:{},&amp;quot;external_mention_url&amp;quot;:{}},&amp;quot;isKeepQuoteContainer&amp;quot;:false,&amp;quot;isFromCode&amp;quot;:false,&amp;quot;selection&amp;quot;:[{&amp;quot;id&amp;quot;:23,&amp;quot;type&amp;quot;:&amp;quot;text&amp;quot;,&amp;quot;selection&amp;quot;:{&amp;quot;start&amp;quot;:0,&amp;quot;end&amp;quot;:25},&amp;quot;recordId&amp;quot;:&amp;quot;JIQad8sEWowKi4xaQBFcA7dcnKf&amp;quot;}],&amp;quot;isCut&amp;quot;:false}&quot;&gt;&lt;/span&gt;&lt;/font&gt;" style="rounded=1;whiteSpace=wrap;html=1;strokeWidth=2;fillWeight=4;hachureGap=8;hachureAngle=45;fillColor=none;sketch=1;fontSize=18;strokeColor=#d79b00;" vertex="1" parent="1">
          <mxGeometry x="40" y="120" width="170" height="40" as="geometry" />
        </mxCell>
        <mxCell id="jyDaiIP-EExztPaQqgR1-21" style="edgeStyle=orthogonalEdgeStyle;curved=1;rounded=0;orthogonalLoop=1;jettySize=auto;html=1;exitX=0.5;exitY=1;exitDx=0;exitDy=0;entryX=1;entryY=0.5;entryDx=0;entryDy=0;dashed=1;strokeColor=#9933FF;fontColor=#1D3557;fillColor=#A8DADC;" edge="1" parent="1" source="jyDaiIP-EExztPaQqgR1-9" target="jyDaiIP-EExztPaQqgR1-4">
          <mxGeometry relative="1" as="geometry" />
        </mxCell>
        <mxCell id="jyDaiIP-EExztPaQqgR1-9" value="&lt;div style=&quot;font-size: 12px;&quot; data-docx-has-block-data=&quot;false&quot; data-page-id=&quot;DxfHdrzcuoXOEqxZpcIcURhInae&quot;&gt;&lt;div class=&quot;ace-line ace-line old-record-id-JIQad8sEWowKi4xaQBFcA7dcnKf&quot; style=&quot;&quot;&gt;&lt;font style=&quot;font-size: 12px;&quot;&gt;@magic-platform/magic-box&lt;/font&gt;&lt;/div&gt;&lt;/div&gt;&lt;font style=&quot;font-size: 12px;&quot;&gt;&lt;span class=&quot;lark-record-clipboard&quot; data-lark-record-format=&quot;docx/text&quot; data-lark-record-data=&quot;{&amp;quot;rootId&amp;quot;:&amp;quot;DxfHdrzcuoXOEqxZpcIcURhInae&amp;quot;,&amp;quot;text&amp;quot;:{&amp;quot;initialAttributedTexts&amp;quot;:{&amp;quot;text&amp;quot;:{&amp;quot;0&amp;quot;:&amp;quot;@magic-platform/magic-box&amp;quot;},&amp;quot;attribs&amp;quot;:{&amp;quot;0&amp;quot;:&amp;quot;*0+p&amp;quot;}},&amp;quot;apool&amp;quot;:{&amp;quot;numToAttrib&amp;quot;:{&amp;quot;0&amp;quot;:[&amp;quot;author&amp;quot;,&amp;quot;7068583431243890692&amp;quot;]},&amp;quot;nextNum&amp;quot;:1}},&amp;quot;type&amp;quot;:&amp;quot;text&amp;quot;,&amp;quot;referenceRecordMap&amp;quot;:{},&amp;quot;extra&amp;quot;:{&amp;quot;mention_page_title&amp;quot;:{},&amp;quot;external_mention_url&amp;quot;:{}},&amp;quot;isKeepQuoteContainer&amp;quot;:false,&amp;quot;isFromCode&amp;quot;:false,&amp;quot;selection&amp;quot;:[{&amp;quot;id&amp;quot;:23,&amp;quot;type&amp;quot;:&amp;quot;text&amp;quot;,&amp;quot;selection&amp;quot;:{&amp;quot;start&amp;quot;:0,&amp;quot;end&amp;quot;:25},&amp;quot;recordId&amp;quot;:&amp;quot;JIQad8sEWowKi4xaQBFcA7dcnKf&amp;quot;}],&amp;quot;isCut&amp;quot;:false}&quot;&gt;&lt;/span&gt;&lt;/font&gt;" style="rounded=1;whiteSpace=wrap;html=1;strokeWidth=2;fillWeight=4;hachureGap=8;hachureAngle=45;fillColor=none;sketch=1;fontSize=18;strokeColor=#82b366;" vertex="1" parent="1">
          <mxGeometry x="470" y="140" width="170" height="40" as="geometry" />
        </mxCell>
        <mxCell id="jyDaiIP-EExztPaQqgR1-22" style="edgeStyle=orthogonalEdgeStyle;curved=1;rounded=0;orthogonalLoop=1;jettySize=auto;html=1;exitX=0.5;exitY=1;exitDx=0;exitDy=0;entryX=0.5;entryY=0;entryDx=0;entryDy=0;dashed=1;strokeColor=#9933FF;fontColor=#1D3557;fillColor=#A8DADC;" edge="1" parent="1" source="jyDaiIP-EExztPaQqgR1-10" target="jyDaiIP-EExztPaQqgR1-9">
          <mxGeometry relative="1" as="geometry" />
        </mxCell>
        <mxCell id="jyDaiIP-EExztPaQqgR1-10" value="&lt;div style=&quot;font-size: 12px;&quot; data-docx-has-block-data=&quot;false&quot; data-page-id=&quot;DxfHdrzcuoXOEqxZpcIcURhInae&quot;&gt;&lt;div class=&quot;ace-line ace-line old-record-id-JIQad8sEWowKi4xaQBFcA7dcnKf&quot; style=&quot;&quot;&gt;&lt;font style=&quot;font-size: 12px;&quot;&gt;@magic-platform/magic-box&lt;/font&gt;&lt;/div&gt;&lt;/div&gt;&lt;font style=&quot;font-size: 12px;&quot;&gt;&lt;span class=&quot;lark-record-clipboard&quot; data-lark-record-format=&quot;docx/text&quot; data-lark-record-data=&quot;{&amp;quot;rootId&amp;quot;:&amp;quot;DxfHdrzcuoXOEqxZpcIcURhInae&amp;quot;,&amp;quot;text&amp;quot;:{&amp;quot;initialAttributedTexts&amp;quot;:{&amp;quot;text&amp;quot;:{&amp;quot;0&amp;quot;:&amp;quot;@magic-platform/magic-box&amp;quot;},&amp;quot;attribs&amp;quot;:{&amp;quot;0&amp;quot;:&amp;quot;*0+p&amp;quot;}},&amp;quot;apool&amp;quot;:{&amp;quot;numToAttrib&amp;quot;:{&amp;quot;0&amp;quot;:[&amp;quot;author&amp;quot;,&amp;quot;7068583431243890692&amp;quot;]},&amp;quot;nextNum&amp;quot;:1}},&amp;quot;type&amp;quot;:&amp;quot;text&amp;quot;,&amp;quot;referenceRecordMap&amp;quot;:{},&amp;quot;extra&amp;quot;:{&amp;quot;mention_page_title&amp;quot;:{},&amp;quot;external_mention_url&amp;quot;:{}},&amp;quot;isKeepQuoteContainer&amp;quot;:false,&amp;quot;isFromCode&amp;quot;:false,&amp;quot;selection&amp;quot;:[{&amp;quot;id&amp;quot;:23,&amp;quot;type&amp;quot;:&amp;quot;text&amp;quot;,&amp;quot;selection&amp;quot;:{&amp;quot;start&amp;quot;:0,&amp;quot;end&amp;quot;:25},&amp;quot;recordId&amp;quot;:&amp;quot;JIQad8sEWowKi4xaQBFcA7dcnKf&amp;quot;}],&amp;quot;isCut&amp;quot;:false}&quot;&gt;&lt;/span&gt;&lt;/font&gt;" style="rounded=1;whiteSpace=wrap;html=1;strokeWidth=2;fillWeight=4;hachureGap=8;hachureAngle=45;fillColor=none;sketch=1;fontSize=18;strokeColor=#82b366;" vertex="1" parent="1">
          <mxGeometry x="480" y="50" width="170" height="40" as="geometry" />
        </mxCell>
        <mxCell id="jyDaiIP-EExztPaQqgR1-12" style="rounded=0;orthogonalLoop=1;jettySize=auto;html=1;entryX=0.5;entryY=0;entryDx=0;entryDy=0;strokeColor=#457B9D;fontSize=12;fontColor=#1D3557;fillColor=#A8DADC;exitX=0.5;exitY=1;exitDx=0;exitDy=0;labelBackgroundColor=#F1FAEE;" edge="1" parent="1" source="jyDaiIP-EExztPaQqgR1-3" target="jyDaiIP-EExztPaQqgR1-7">
          <mxGeometry relative="1" as="geometry">
            <mxPoint x="313.79999999999995" y="140" as="sourcePoint" />
            <mxPoint x="240" y="110" as="targetPoint" />
          </mxGeometry>
        </mxCell>
        <mxCell id="jyDaiIP-EExztPaQqgR1-13" style="rounded=0;orthogonalLoop=1;jettySize=auto;html=1;entryX=0;entryY=0.5;entryDx=0;entryDy=0;strokeColor=#457B9D;fontSize=12;fontColor=#1D3557;fillColor=#A8DADC;exitX=1;exitY=0.5;exitDx=0;exitDy=0;labelBackgroundColor=#F1FAEE;" edge="1" parent="1" source="jyDaiIP-EExztPaQqgR1-3" target="jyDaiIP-EExztPaQqgR1-9">
          <mxGeometry relative="1" as="geometry">
            <mxPoint x="323.79999999999995" y="150" as="sourcePoint" />
            <mxPoint x="250" y="120" as="targetPoint" />
          </mxGeometry>
        </mxCell>
        <mxCell id="jyDaiIP-EExztPaQqgR1-14" style="rounded=0;orthogonalLoop=1;jettySize=auto;html=1;entryX=0;entryY=0.5;entryDx=0;entryDy=0;strokeColor=#457B9D;fontSize=12;fontColor=#1D3557;fillColor=#A8DADC;exitX=1;exitY=0.5;exitDx=0;exitDy=0;labelBackgroundColor=#F1FAEE;" edge="1" parent="1" source="jyDaiIP-EExztPaQqgR1-3" target="jyDaiIP-EExztPaQqgR1-10">
          <mxGeometry relative="1" as="geometry">
            <mxPoint x="333.79999999999995" y="160" as="sourcePoint" />
            <mxPoint x="260" y="130" as="targetPoint" />
          </mxGeometry>
        </mxCell>
        <mxCell id="jyDaiIP-EExztPaQqgR1-15" style="rounded=1;orthogonalLoop=1;jettySize=auto;html=1;entryX=0.5;entryY=0;entryDx=0;entryDy=0;strokeColor=#457B9D;fontSize=12;fontColor=#1D3557;fillColor=#A8DADC;exitX=0.5;exitY=1;exitDx=0;exitDy=0;labelBackgroundColor=#F1FAEE;" edge="1" parent="1" source="jyDaiIP-EExztPaQqgR1-3" target="jyDaiIP-EExztPaQqgR1-4">
          <mxGeometry relative="1" as="geometry">
            <mxPoint x="343.79999999999995" y="170" as="sourcePoint" />
            <mxPoint x="270" y="140" as="targetPoint" />
          </mxGeometry>
        </mxCell>
      </root>
    </mxGraphModel>
  </diagram>
</mxfile>
